# xmcd CD database file
#
# Track frame offsets:
#	182
#	31645
#	44595
#	64580
#	86795
#	120760
#	135252
#	159917
#
# Disc length: 2453 seconds
#
# Revision: 4
# Processed by: cddbd v1.5.2PL0 Copyright (c) Steve Scherf et al.
# Submitted via: CDex 1.51
#
DISCID=54099308
DTITLE=Joao Bosco - Acustico MTV
DYEAR=1997
DGENRE=MPB
TTITLE0=Odile Odilah - Zona de Fronteira
TTITLE1=Holofotes
TTITLE2=Papel Mache
TTITLE3=Granito - Jade
TTITLE4=Quilombo - Tiro de Misericordia - Escadas da Penha
TTITLE5=Memoria da Pele
TTITLE6=E Entao Que Quereis...?
TTITLE7=Eleanor Rigby - Fita Amarela - Trem Bala
EXTD=1997 YEAR: 1997
EXTT0=
EXTT1=
EXTT2=
EXTT3=
EXTT4=
EXTT5=
EXTT6=
EXTT7=
PLAYORDER=
